<mxfile host="Electron" agent="Mozilla/5.0 (Windows NT 10.0; Win64; x64) AppleWebKit/537.36 (KHTML, like Gecko) draw.io/24.7.17 Chrome/128.0.6613.36 Electron/32.0.1 Safari/537.36" version="24.7.17">
  <diagram name="Page-1" id="OqdMRoAYMKuFAS-dvYNn">
    <mxGraphModel dx="1036" dy="654" grid="1" gridSize="10" guides="1" tooltips="1" connect="1" arrows="1" fold="1" page="1" pageScale="1" pageWidth="850" pageHeight="1100" math="0" shadow="0">
      <root>
        <mxCell id="0" />
        <mxCell id="1" parent="0" />
        <mxCell id="Vv0W8BuGLOyLWaXfWfYJ-10" value="" style="edgeStyle=orthogonalEdgeStyle;rounded=0;orthogonalLoop=1;jettySize=auto;html=1;" edge="1" parent="1" source="Vv0W8BuGLOyLWaXfWfYJ-1" target="Vv0W8BuGLOyLWaXfWfYJ-2">
          <mxGeometry relative="1" as="geometry" />
        </mxCell>
        <mxCell id="Vv0W8BuGLOyLWaXfWfYJ-1" value="In các món đồ đã chọn" style="rounded=1;whiteSpace=wrap;html=1;" vertex="1" parent="1">
          <mxGeometry x="320" y="30" width="170" height="60" as="geometry" />
        </mxCell>
        <mxCell id="Vv0W8BuGLOyLWaXfWfYJ-11" value="" style="edgeStyle=orthogonalEdgeStyle;rounded=0;orthogonalLoop=1;jettySize=auto;html=1;" edge="1" parent="1" source="Vv0W8BuGLOyLWaXfWfYJ-2" target="Vv0W8BuGLOyLWaXfWfYJ-3">
          <mxGeometry relative="1" as="geometry" />
        </mxCell>
        <mxCell id="Vv0W8BuGLOyLWaXfWfYJ-2" value="Khởi tạo i = 0" style="rounded=1;whiteSpace=wrap;html=1;" vertex="1" parent="1">
          <mxGeometry x="345" y="160" width="120" height="60" as="geometry" />
        </mxCell>
        <mxCell id="Vv0W8BuGLOyLWaXfWfYJ-12" value="" style="edgeStyle=orthogonalEdgeStyle;rounded=0;orthogonalLoop=1;jettySize=auto;html=1;" edge="1" parent="1" source="Vv0W8BuGLOyLWaXfWfYJ-3" target="Vv0W8BuGLOyLWaXfWfYJ-4">
          <mxGeometry relative="1" as="geometry" />
        </mxCell>
        <mxCell id="Vv0W8BuGLOyLWaXfWfYJ-3" value="i &amp;lt; số lần chọn" style="rhombus;whiteSpace=wrap;html=1;" vertex="1" parent="1">
          <mxGeometry x="355" y="300" width="100" height="80" as="geometry" />
        </mxCell>
        <mxCell id="Vv0W8BuGLOyLWaXfWfYJ-13" value="" style="edgeStyle=orthogonalEdgeStyle;rounded=0;orthogonalLoop=1;jettySize=auto;html=1;" edge="1" parent="1" source="Vv0W8BuGLOyLWaXfWfYJ-4" target="Vv0W8BuGLOyLWaXfWfYJ-5">
          <mxGeometry relative="1" as="geometry" />
        </mxCell>
        <mxCell id="Vv0W8BuGLOyLWaXfWfYJ-4" value="Số lần chọn&lt;div&gt;&amp;nbsp;tai i &amp;gt; 0&lt;/div&gt;" style="rhombus;whiteSpace=wrap;html=1;" vertex="1" parent="1">
          <mxGeometry x="347.5" y="460" width="115" height="80" as="geometry" />
        </mxCell>
        <mxCell id="Vv0W8BuGLOyLWaXfWfYJ-14" value="" style="edgeStyle=orthogonalEdgeStyle;rounded=0;orthogonalLoop=1;jettySize=auto;html=1;" edge="1" parent="1" source="Vv0W8BuGLOyLWaXfWfYJ-5" target="Vv0W8BuGLOyLWaXfWfYJ-6">
          <mxGeometry relative="1" as="geometry" />
        </mxCell>
        <mxCell id="Vv0W8BuGLOyLWaXfWfYJ-5" value="Món đồ vật i chọn số&lt;div&gt;&amp;nbsp;lần chọn[i] lần&lt;/div&gt;" style="shape=parallelogram;perimeter=parallelogramPerimeter;whiteSpace=wrap;html=1;fixedSize=1;" vertex="1" parent="1">
          <mxGeometry x="318.75" y="630" width="172.5" height="60" as="geometry" />
        </mxCell>
        <mxCell id="Vv0W8BuGLOyLWaXfWfYJ-6" value="Tổng trọng lượng += số lần chọn[i] * trọng lượng vật i chọn&lt;div&gt;Tổng đơn giá += (GT vật i / TL vật i) * Số lần chọn vật i&lt;/div&gt;" style="rounded=0;whiteSpace=wrap;html=1;" vertex="1" parent="1">
          <mxGeometry x="231.25" y="770" width="347.5" height="80" as="geometry" />
        </mxCell>
        <mxCell id="Vv0W8BuGLOyLWaXfWfYJ-7" value="Tăng i lên 1" style="rounded=0;whiteSpace=wrap;html=1;" vertex="1" parent="1">
          <mxGeometry x="120" y="470" width="120" height="60" as="geometry" />
        </mxCell>
        <mxCell id="Vv0W8BuGLOyLWaXfWfYJ-8" value="Kết thúc" style="rounded=1;whiteSpace=wrap;html=1;" vertex="1" parent="1">
          <mxGeometry x="570" y="310" width="120" height="60" as="geometry" />
        </mxCell>
        <mxCell id="Vv0W8BuGLOyLWaXfWfYJ-9" value="" style="endArrow=classic;html=1;rounded=0;exitX=0;exitY=0.5;exitDx=0;exitDy=0;entryX=0.5;entryY=1;entryDx=0;entryDy=0;" edge="1" parent="1" source="Vv0W8BuGLOyLWaXfWfYJ-6" target="Vv0W8BuGLOyLWaXfWfYJ-7">
          <mxGeometry width="50" height="50" relative="1" as="geometry">
            <mxPoint x="420" y="690" as="sourcePoint" />
            <mxPoint x="470" y="640" as="targetPoint" />
            <Array as="points">
              <mxPoint x="180" y="810" />
            </Array>
          </mxGeometry>
        </mxCell>
        <mxCell id="Vv0W8BuGLOyLWaXfWfYJ-15" value="" style="endArrow=classic;html=1;rounded=0;exitX=0.5;exitY=0;exitDx=0;exitDy=0;entryX=0;entryY=0.5;entryDx=0;entryDy=0;" edge="1" parent="1" source="Vv0W8BuGLOyLWaXfWfYJ-7" target="Vv0W8BuGLOyLWaXfWfYJ-3">
          <mxGeometry width="50" height="50" relative="1" as="geometry">
            <mxPoint x="450" y="610" as="sourcePoint" />
            <mxPoint x="500" y="560" as="targetPoint" />
            <Array as="points">
              <mxPoint x="180" y="340" />
            </Array>
          </mxGeometry>
        </mxCell>
        <mxCell id="Vv0W8BuGLOyLWaXfWfYJ-16" value="" style="endArrow=classic;html=1;rounded=0;exitX=1;exitY=0.5;exitDx=0;exitDy=0;entryX=0;entryY=0.5;entryDx=0;entryDy=0;" edge="1" parent="1" source="Vv0W8BuGLOyLWaXfWfYJ-3" target="Vv0W8BuGLOyLWaXfWfYJ-8">
          <mxGeometry width="50" height="50" relative="1" as="geometry">
            <mxPoint x="450" y="610" as="sourcePoint" />
            <mxPoint x="500" y="560" as="targetPoint" />
          </mxGeometry>
        </mxCell>
        <mxCell id="Vv0W8BuGLOyLWaXfWfYJ-17" value="Đúng" style="text;html=1;align=center;verticalAlign=middle;resizable=0;points=[];autosize=1;strokeColor=none;fillColor=none;" vertex="1" parent="1">
          <mxGeometry x="415" y="408" width="50" height="30" as="geometry" />
        </mxCell>
        <mxCell id="Vv0W8BuGLOyLWaXfWfYJ-18" value="Đúng" style="text;html=1;align=center;verticalAlign=middle;resizable=0;points=[];autosize=1;strokeColor=none;fillColor=none;" vertex="1" parent="1">
          <mxGeometry x="415" y="568" width="50" height="30" as="geometry" />
        </mxCell>
        <mxCell id="Vv0W8BuGLOyLWaXfWfYJ-19" value="" style="endArrow=classic;html=1;rounded=0;exitX=0;exitY=0.5;exitDx=0;exitDy=0;entryX=1;entryY=0.5;entryDx=0;entryDy=0;" edge="1" parent="1" source="Vv0W8BuGLOyLWaXfWfYJ-4" target="Vv0W8BuGLOyLWaXfWfYJ-7">
          <mxGeometry width="50" height="50" relative="1" as="geometry">
            <mxPoint x="450" y="550" as="sourcePoint" />
            <mxPoint x="500" y="500" as="targetPoint" />
          </mxGeometry>
        </mxCell>
        <mxCell id="Vv0W8BuGLOyLWaXfWfYJ-20" value="Sai" style="text;html=1;align=center;verticalAlign=middle;resizable=0;points=[];autosize=1;strokeColor=none;fillColor=none;" vertex="1" parent="1">
          <mxGeometry x="290" y="468" width="40" height="30" as="geometry" />
        </mxCell>
        <mxCell id="Vv0W8BuGLOyLWaXfWfYJ-21" value="Sai" style="text;html=1;align=center;verticalAlign=middle;resizable=0;points=[];autosize=1;strokeColor=none;fillColor=none;" vertex="1" parent="1">
          <mxGeometry x="475" y="310" width="40" height="30" as="geometry" />
        </mxCell>
      </root>
    </mxGraphModel>
  </diagram>
</mxfile>
